<?xml version="1.0" encoding="utf-8"?>
<!-- Generator: Adobe Illustrator 24.2.1, SVG Export Plug-In . SVG Version: 6.00 Build 0)  -->
<svg version="1.1" id="Layer_1" xmlns="http://www.w3.org/2000/svg" xmlns:xlink="http://www.w3.org/1999/xlink" x="0px" y="0px"
	 viewBox="0 0 198.31 236.44" style="enable-background:new 0 0 198.31 236.44;" xml:space="preserve">
<style type="text/css">
	.st0{fill:#FFFFFF;}
	.st1{fill:url(#SVGID_1_);}
	.st2{opacity:0.96;fill:url(#SVGID_2_);}
	.st3{fill:#95CD2C;}
	.st4{fill:url(#SVGID_3_);}
	.st5{fill:url(#SVGID_4_);}
	.st6{fill:url(#SVGID_5_);}
	.st7{fill:url(#SVGID_6_);}
	.st8{fill:url(#SVGID_7_);}
	.st9{fill:url(#SVGID_8_);}
	.st10{fill:url(#SVGID_9_);}
</style>
<g>
	<path class="st0" d="M-5.79-40.71v21.18h-10.83c-4.8,0-8.7-3.9-8.7-8.73v-3.72c0-4.84,3.9-8.73,8.7-8.73H-5.79z M-11.75-25.49
		v-9.27h-4.11c-1.95,0-3.5,1.55-3.5,3.5v2.27c0,1.91,1.55,3.5,3.5,3.5H-11.75z"/>
	<path class="st0" d="M2.53-46.68h5.95v20.93c0,4.08-3.32,7.36-7.36,7.36h-4.29v-5.95h3.68c1.12,0,2.02-0.9,2.02-2.02V-46.68z"/>
	<linearGradient id="SVGID_1_" gradientUnits="userSpaceOnUse" x1="2.454" y1="-52.1898" x2="8.4073" y2="-52.1898">
		<stop  offset="0" style="stop-color:#FFCB30"/>
		<stop  offset="1" style="stop-color:#24D4F7"/>
	</linearGradient>
	<path class="st1" d="M2.45-50.8c0-2.78,2.24-5.02,5.02-5.02h0.94v7.25H2.45V-50.8z"/>
	<path class="st0" d="M24.65-44.69c0-2.78,2.24-5.02,5.02-5.02h0.94v31.18H19.06c-4.8,0-8.7-3.9-8.7-8.73v-3.72
		c0-4.84,3.9-8.73,8.7-8.73h5.59V-44.69z M23.65-23.49v-9.27h-4.84c-1.95,0-3.5,1.59-3.5,3.5v2.27c0,1.91,1.55,3.5,3.5,3.5H23.65z"
		/>
	<path class="st0" d="M43.21-39.68c4.8,0,8.7,3.9,8.7,8.7v12.45h-5.95v-11.73c0-1.91-1.55-3.46-3.5-3.46h-4v15.19h-5.95v-25.98
		c0-2.78,2.24-5.02,5.02-5.02h0.94v9.85H43.21z"/>
	<path class="st0" d="M65.66-38.71c4.84,0,8.73,3.9,8.73,8.73v3.72c0,4.84-3.9,8.73-8.73,8.73h-3.5c-4.84,0-8.73-3.9-8.73-8.73
		v-3.72c0-4.84,3.9-8.73,8.73-8.73H65.66z M68.44-29.26c0-1.95-1.55-3.5-3.5-3.5h-2.06c-1.95,0-3.5,1.55-3.5,3.5v2.27
		c0,1.91,1.55,3.5,3.5,3.5h2.06c1.95,0,3.5-1.59,3.5-3.5V-29.26z"/>
	<path class="st0" d="M83.09-27.35c0,2.02,1.62,3.64,3.64,3.64h2.92v6.17h-3.68c-5.02,0-9.06-4.04-9.06-9.06v-16.42
		c0-2.85,2.35-5.2,5.23-5.2h0.94V-27.35z"/>
	<path class="st0" d="M111.8-38.71v21.18h-10.83c-4.8,0-8.7-3.9-8.7-8.73v-3.72c0-4.84,3.9-8.73,8.7-8.73H111.8z M105.85-23.49
		v-9.27h-4.11c-1.95,0-3.5,1.55-3.5,3.5v2.27c0,1.91,1.55,3.5,3.5,3.5H105.85z"/>
	<linearGradient id="SVGID_2_" gradientUnits="userSpaceOnUse" x1="-31.5633" y1="-42.3575" x2="-57.0284" y2="-36.6135">
		<stop  offset="0" style="stop-color:#FFCB30;stop-opacity:0"/>
		<stop  offset="1" style="stop-color:#44B666"/>
	</linearGradient>
	<polygon class="st2" points="-28.5,-57.76 -28.5,-39.42 -43.7,-30.7 -60.31,-21.17 -60.31,-21.17 -60.04,-21.32 -60.04,-40.86 	"/>
	<polygon class="st3" points="-60.31,-21.17 -61.65,-21.95 -74.64,-29.51 -74.64,-49.77 -60.12,-40.82 -60.04,-40.77 -60.04,-21.32 
			"/>
	<linearGradient id="SVGID_3_" gradientUnits="userSpaceOnUse" x1="-60.0433" y1="-21.1195" x2="-22.8625" y2="-21.1195">
		<stop  offset="0" style="stop-color:#FFCB30"/>
		<stop  offset="1" style="stop-color:#24D4F7"/>
	</linearGradient>
	<polygon class="st4" points="-22.86,-12.6 -48.09,-12.51 -60.04,-21.32 -45.39,-29.73 	"/>
	<linearGradient id="SVGID_4_" gradientUnits="userSpaceOnUse" x1="-64.7058" y1="-59.2571" x2="-25.9425" y2="11.2494">
		<stop  offset="0" style="stop-color:#FFCB30"/>
		<stop  offset="0.1816" style="stop-color:#F6CB38"/>
	</linearGradient>
	<polygon class="st5" points="-22.86,-12.6 -48.09,-12.51 -60.04,-21.32 -45.39,-29.73 	"/>
	<linearGradient id="SVGID_5_" gradientUnits="userSpaceOnUse" x1="-66.1875" y1="-71.0549" x2="-71.1658" y2="17.789">
		<stop  offset="0" style="stop-color:#FFCB30"/>
		<stop  offset="1" style="stop-color:#F5CB3A"/>
	</linearGradient>
	<polygon class="st6" points="-75.38,-66.44 -75.38,-12.51 -60.04,-21.32 -60.04,-75.51 	"/>
	<linearGradient id="SVGID_6_" gradientUnits="userSpaceOnUse" x1="-60.0424" y1="-57.4637" x2="-28.4958" y2="-57.4637">
		<stop  offset="0" style="stop-color:#FFCB30"/>
		<stop  offset="1" style="stop-color:#24D4F7"/>
	</linearGradient>
	<polygon class="st7" points="-60.04,-75.51 -28.5,-57.76 -28.5,-39.42 -60.04,-56.74 	"/>
	<linearGradient id="SVGID_7_" gradientUnits="userSpaceOnUse" x1="-41.1469" y1="-56.0666" x2="-70.4935" y2="-69.1953">
		<stop  offset="0" style="stop-color:#009DEA"/>
		<stop  offset="1" style="stop-color:#FFCB30;stop-opacity:0"/>
	</linearGradient>
	<polygon class="st8" points="-60.04,-75.51 -28.5,-57.76 -28.5,-39.42 -60.04,-56.74 	"/>
	<linearGradient id="SVGID_8_" gradientUnits="userSpaceOnUse" x1="-60.3064" y1="-39.4616" x2="-28.4975" y2="-39.4616">
		<stop  offset="0" style="stop-color:#FFCB30"/>
		<stop  offset="1" style="stop-color:#24D4F7"/>
	</linearGradient>
	<polygon class="st9" points="-28.5,-57.76 -28.5,-39.42 -43.7,-30.7 -60.31,-21.17 -60.31,-21.17 -60.04,-21.32 -60.04,-40.86 	"/>
	<linearGradient id="SVGID_9_" gradientUnits="userSpaceOnUse" x1="-41.1388" y1="-30.2569" x2="-61.3122" y2="-21.4417">
		<stop  offset="0" style="stop-color:#FFCB30;stop-opacity:0"/>
		<stop  offset="1" style="stop-color:#44B666"/>
	</linearGradient>
	<polygon class="st10" points="-60.04,-21.32 -43.17,-28.04 -45.39,-29.73 	"/>
</g>
<g>
</g>
<g>
</g>
<g>
</g>
<g>
</g>
<g>
</g>
<g>
</g>
<g>
</g>
<g>
</g>
<g>
</g>
<g>
</g>
<g>
</g>
<g>
</g>
<g>
</g>
<g>
</g>
<g>
</g>
</svg>
