<?xml version="1.0" encoding="utf-8"?>
<!-- Generator: Adobe Illustrator 24.2.1, SVG Export Plug-In . SVG Version: 6.00 Build 0)  -->
<svg version="1.1" id="Layer_1" xmlns="http://www.w3.org/2000/svg" xmlns:xlink="http://www.w3.org/1999/xlink" x="0px" y="0px"
	 viewBox="0 0 659.15 254.93" style="enable-background:new 0 0 659.15 254.93;" xml:space="preserve">
<style type="text/css">
	.st0{fill:#E57A0D;}
	.st1{fill:#00453E;}
	.st2{fill:url(#SVGID_1_);}
	.st3{fill:url(#SVGID_2_);}
	.st4{fill:url(#SVGID_3_);}
	.st5{fill:url(#SVGID_4_);}
</style>
<g>
	<g>
		<path class="st0" d="M256.3,117.79v68.65h-35.08c-15.55,0-28.18-12.63-28.18-28.3v-12.04c0-15.67,12.63-28.3,28.18-28.3H256.3z
			 M237,167.14v-30.05h-13.33c-6.31,0-11.34,5.03-11.34,11.34v7.37c0,6.2,5.03,11.34,11.34,11.34H237z"/>
		<path class="st0" d="M267.05,117.91h19.3v67.83c0,13.21-10.76,23.86-23.86,23.86h-13.92v-19.3h11.93c3.63,0,6.55-2.92,6.55-6.55
			V117.91z"/>
		<path class="st1" d="M266.82,101.3c0-9,7.25-16.26,16.25-16.26h3.04v23.51h-19.29V101.3z"/>
		<path class="st0" d="M342.01,101.65c0-9,7.25-16.26,16.25-16.26h3.04v101.04h-37.42c-15.55,0-28.18-12.63-28.18-28.3v-12.04
			c0-15.67,12.63-28.3,28.18-28.3h18.13V101.65z M342.01,167.14v-30.05h-15.67c-6.31,0-11.34,5.15-11.34,11.34v7.37
			c0,6.2,5.03,11.34,11.34,11.34H342.01z"/>
		<path class="st0" d="M405.38,117.91c15.55,0,28.18,12.63,28.18,28.18v40.35h-19.3v-38.01c0-6.2-5.03-11.23-11.34-11.23h-12.98
			v49.23h-19.3v-84.2c0-9,7.25-16.25,16.25-16.25h3.04v31.92H405.38z"/>
		<path class="st0" d="M481.39,117.79c15.67,0,28.3,12.63,28.3,28.3v12.04c0,15.67-12.63,28.3-28.3,28.3h-11.34
			c-15.67,0-28.3-12.63-28.3-28.3v-12.04c0-15.67,12.63-28.3,28.3-28.3H481.39z M490.39,148.43c0-6.31-5.03-11.34-11.34-11.34h-6.67
			c-6.31,0-11.34,5.03-11.34,11.34v7.37c0,6.2,5.03,11.34,11.34,11.34h6.67c6.32,0,11.34-5.15,11.34-11.34V148.43z"/>
		<path class="st0" d="M537.87,154.63c0,6.55,5.26,11.81,11.81,11.81h9.47v20h-11.93c-16.26,0-29.35-13.1-29.35-29.35v-53.21
			c0-9.24,7.6-16.84,16.96-16.84h3.04V154.63z"/>
		<path class="st0" d="M627.67,117.79v68.65h-35.08c-15.55,0-28.18-12.63-28.18-28.3v-12.04c0-15.67,12.63-28.3,28.18-28.3H627.67z
			 M608.38,167.14v-30.05h-13.33c-6.31,0-11.34,5.03-11.34,11.34v7.37c0,6.2,5.03,11.34,11.34,11.34H608.38z"/>
	</g>
	<g>
		<g>
			<linearGradient id="SVGID_1_" gradientUnits="userSpaceOnUse" x1="76.9074" y1="199.1432" x2="197.1649" y2="199.1432">
				<stop  offset="0" style="stop-color:#FFCB30"/>
				<stop  offset="1" style="stop-color:#24D4F7"/>
			</linearGradient>
			<polygon class="st2" points="197.16,226.6 115.58,226.89 76.91,198.49 124.29,171.4 			"/>
			<linearGradient id="SVGID_2_" gradientUnits="userSpaceOnUse" x1="138.0514" y1="169.6757" x2="72.8358" y2="198.1732">
				<stop  offset="0" style="stop-color:#FFCB30;stop-opacity:0"/>
				<stop  offset="1" style="stop-color:#44B666"/>
			</linearGradient>
			<polygon class="st3" points="76.91,198.49 131.47,176.84 124.29,171.4 			"/>
			<polyline class="st1" points="76.93,198.63 76.93,135.3 179.16,80.56 179.16,139.97 129.89,168.25 			"/>
			<polygon class="st1" points="76.93,23.03 179.17,80.55 179.16,139.97 76.93,83.84 			"/>
		</g>
		<g>
			<polygon class="st1" points="197.16,226.6 115.58,226.89 76.91,198.49 124.29,171.4 			"/>
			<polygon class="st1" points="27.31,52.49 27.31,227.25 76.93,198.63 77.01,23.1 			"/>
			<linearGradient id="SVGID_3_" gradientUnits="userSpaceOnUse" x1="76.9014" y1="55.5588" x2="146.0958" y2="90.6574">
				<stop  offset="0" style="stop-color:#00453E"/>
				<stop  offset="1" style="stop-color:#24D4F7"/>
			</linearGradient>
			<polygon class="st4" points="76.93,23.03 179.17,80.55 179.16,139.97 76.93,83.84 			"/>
			<linearGradient id="SVGID_4_" gradientUnits="userSpaceOnUse" x1="191.942" y1="93.1045" x2="59.5701" y2="185.3637">
				<stop  offset="0" style="stop-color:#24D4F7"/>
				<stop  offset="1" style="stop-color:#00453E"/>
			</linearGradient>
			<polyline class="st5" points="76.93,198.63 76.93,198.63 76.93,135.3 179.16,80.56 179.16,139.97 129.89,168.25 			"/>
		</g>
	</g>
</g>
<g>
</g>
<g>
</g>
<g>
</g>
<g>
</g>
<g>
</g>
<g>
</g>
<g>
</g>
<g>
</g>
<g>
</g>
<g>
</g>
<g>
</g>
<g>
</g>
<g>
</g>
<g>
</g>
<g>
</g>
</svg>
